<svg width="135" height="46" viewBox="0 0 135 46" fill="none" xmlns="http://www.w3.org/2000/svg">
<path d="M7.97852 0C7.97852 0.171541 7.97303 0.343082 7.97303 0.514623C7.97303 13.6467 7.97303 26.7791 7.97303 39.9119V44.4577C7.97303 44.5343 7.97303 44.6104 7.97303 44.6864C7.9648 44.874 7.89214 44.9929 7.73491 44.9998C7.57769 45.0066 7.52879 44.8591 7.49497 44.7139C7.47486 44.6258 7.48994 44.5246 7.48994 44.428V9.49079C7.48994 6.43164 7.48994 3.3725 7.48994 0.313348C7.48994 0.20928 7.48263 0.10464 7.47852 0.000571789L7.97852 0Z" fill="#B1AFB0"/>
<path d="M8.97475 22.5083V44.015C8.97475 44.0919 8.9683 44.1694 8.97475 44.2463C8.98873 44.4279 8.87583 44.4932 8.74626 44.4996C8.60056 44.5065 8.48336 44.4313 8.48175 44.2469C8.48175 43.8901 8.48175 43.5338 8.48175 43.177C8.48175 29.1192 8.48175 15.0611 8.48175 1.00287C8.48417 0.954717 8.48417 0.906457 8.48175 0.858303C8.46078 0.649546 8.54142 0.511338 8.73766 0.500351C8.9597 0.491098 8.97852 0.666316 8.97852 0.857725C8.97637 3.97 8.97637 7.08228 8.97852 10.1946L8.97475 22.5083Z" fill="#B1AFB0"/>
<path d="M4.47772 30.5022V40.4697C4.47772 40.5171 4.47772 40.5645 4.47772 40.6125C4.48707 40.8348 4.41501 41.0034 4.22364 40.9999C4.04208 40.9959 3.9864 40.8068 3.98406 40.6154C3.97704 40.1108 3.97985 39.6062 3.97985 39.1017C3.97985 32.9043 3.98094 26.7072 3.98312 20.5102C3.98312 20.3822 3.95271 20.2479 4.04816 20.1348C4.11976 20.049 4.19088 19.9708 4.29008 20.0108C4.33955 20.0271 4.38373 20.0615 4.4167 20.1094C4.44966 20.1573 4.46981 20.2164 4.47444 20.2788C4.48052 20.3639 4.47725 20.4502 4.47725 20.5353L4.47772 30.5022Z" fill="#B1AFB0"/>
<path d="M6.97711 29.5041V38.9232C6.97711 38.9906 6.97429 39.0587 6.97711 39.1267C6.98741 39.354 6.87781 39.5023 6.72138 39.5C6.57806 39.5 6.48158 39.3407 6.48111 39.1372V20.0373C6.48275 19.9986 6.48275 19.9598 6.48111 19.921C6.46237 19.6786 6.54481 19.5041 6.74199 19.5001C6.93917 19.496 6.97898 19.6948 6.97851 19.9106C6.97664 21.335 6.97664 22.7595 6.97851 24.184V29.5041H6.97711Z" fill="#B1AFB0"/>
<path d="M5.48411 30.7275C5.48411 27.1207 5.48411 23.5134 5.48411 19.9058C5.48411 19.7356 5.42412 19.5123 5.69703 19.5007C5.85915 19.492 5.95696 19.5655 5.97588 19.7408C5.9794 19.8083 5.9794 19.8759 5.97588 19.9434V41.5527C5.97588 41.6106 5.97588 41.6685 5.97588 41.7263C5.97826 41.7627 5.97335 41.7992 5.96148 41.8334C5.9496 41.8676 5.93104 41.8986 5.90704 41.9245C5.88304 41.9504 5.85415 41.9704 5.82231 41.9834C5.79047 41.9963 5.75641 42.0018 5.72243 41.9995C5.57436 41.9995 5.4787 41.9034 5.48033 41.7205C5.48357 41.2287 5.48033 40.7368 5.48033 40.2449C5.48033 37.0724 5.48033 33.9 5.48033 30.7275H5.48411Z" fill="#B1AFB0"/>
<path d="M3.47704 29.0192V36.0233C3.47704 36.0698 3.47704 36.1169 3.47704 36.1634C3.48352 36.3573 3.43071 36.4901 3.24958 36.4996C3.06844 36.5091 3.01424 36.3522 2.9883 36.1875C2.96838 36.0614 2.98505 35.9269 2.98505 35.7952C2.98505 31.2005 2.98505 26.6075 2.98505 22.0161C2.98505 21.8772 2.97533 21.741 3.05593 21.6177C3.08368 21.5733 3.12121 21.5392 3.16422 21.5194C3.20724 21.4996 3.254 21.4948 3.29915 21.5057C3.34603 21.5128 3.38925 21.54 3.42096 21.5823C3.45267 21.6247 3.47076 21.6794 3.47194 21.7365C3.48121 21.8665 3.47797 21.9976 3.47797 22.1288C3.47797 24.4257 3.47797 26.7231 3.47797 29.0208L3.47704 29.0192Z" fill="#B1AFB0"/>
<path d="M2.47744 29.2488V37.0146C2.47744 37.0804 2.47156 37.1467 2.47156 37.2125C2.47156 37.3769 2.40629 37.4959 2.24365 37.4999C2.07191 37.5044 1.98685 37.3939 1.98685 37.2125C1.98685 36.9389 1.98685 36.6653 1.98685 36.3917C1.98685 31.4034 1.98809 26.4152 1.99059 21.4269C1.99059 21.3136 1.93709 21.1718 2.05532 21.0868C2.14146 21.0222 2.23883 20.9644 2.35279 21.0267C2.47905 21.0959 2.47852 21.2172 2.47852 21.3436C2.47852 22.5151 2.47852 23.6866 2.47852 24.8581V29.2505L2.47744 29.2488Z" fill="#B1AFB0"/>
<path d="M6.97727 9.23368V15.5119C6.97727 15.5704 6.98008 15.6288 6.97727 15.6873C6.9766 15.7292 6.96931 15.7705 6.95583 15.8089C6.94234 15.8473 6.92292 15.882 6.89868 15.911C6.87444 15.9401 6.84584 15.9629 6.81453 15.9781C6.78322 15.9934 6.74981 16.0008 6.7162 15.9999C6.58825 15.9999 6.50529 15.8527 6.48186 15.6855C6.4774 15.6176 6.4774 15.5494 6.48186 15.4815C6.48186 11.335 6.48186 7.18848 6.48186 3.04195C6.48186 2.90811 6.45936 2.76784 6.54748 2.65504C6.61309 2.57088 6.68012 2.46042 6.78182 2.51419C6.88353 2.56796 6.97398 2.64627 6.97398 2.80992C6.97398 2.87772 6.97398 2.9461 6.97398 3.0139V9.23368H6.97727Z" fill="#B1AFB0"/>
<path d="M5.47893 10.2486C5.47893 8.29021 5.47893 6.33104 5.47893 4.37111C5.47893 4.22274 5.47893 4.07951 5.63969 4.0156C5.76026 3.96653 5.846 4.04185 5.92478 4.12174C6.00355 4.20163 5.97247 4.31918 5.97247 4.41961C5.97461 6.72953 5.97461 9.03964 5.97247 11.3499C5.97247 12.9378 5.97247 14.5255 5.97247 16.113C5.97247 16.2568 5.98694 16.3983 5.82403 16.4719C5.65041 16.5484 5.49875 16.4651 5.48429 16.2642C5.47464 16.1319 5.48 15.9983 5.48 15.8648L5.47893 10.2486Z" fill="#B1AFB0"/>
<path d="M4.47852 9.02808C4.47852 10.2045 4.47852 11.3809 4.47852 12.5566C4.47852 12.7878 4.44985 13.0059 4.23228 12.9999C4.0288 12.9945 3.97852 12.7878 3.97852 12.5554C3.97852 10.1931 3.97852 7.83073 3.97852 5.46837C3.97852 5.24795 4.01235 5.03711 4.21818 5.00237C4.37748 4.97602 4.4771 5.17188 4.4771 5.46957C4.4771 6.65554 4.4771 7.84171 4.4771 9.02808H4.47852Z" fill="#B1AFB0"/>
<path d="M0.976453 27.9976V32.0492C0.980808 32.1288 0.978263 32.2087 0.968853 32.2878C0.962315 32.348 0.935168 32.4032 0.892926 32.4422C0.850685 32.4812 0.796517 32.5011 0.74143 32.4977C0.682209 32.5066 0.622217 32.4893 0.574602 32.4496C0.526987 32.4099 0.495632 32.3511 0.487411 32.286C0.478792 32.2173 0.476428 32.1477 0.480355 32.0784C0.480355 29.3575 0.480355 26.6365 0.480355 23.9156C0.478637 23.8461 0.480451 23.7766 0.485785 23.7074C0.500983 23.5601 0.609537 23.5052 0.715378 23.5004C0.835331 23.4945 0.9504 23.5499 0.96994 23.7092C0.977276 23.7982 0.979451 23.8877 0.976453 23.977C0.977176 25.317 0.977176 26.6572 0.976453 27.9976Z" fill="#B1AFB0"/>
<path fill-rule="evenodd" clip-rule="evenodd" d="M15.0705 11.2269C15.1472 11.2189 15.2233 11.2066 15.2986 11.1899C15.6442 11.0958 15.8249 11.2138 15.7764 11.5532C15.6863 12.1583 15.4301 12.7092 15.0909 13.2197C14.9622 13.4136 14.7459 13.4946 14.5107 13.4854C14.368 13.4797 14.3195 13.5225 14.2768 13.66C14.2463 13.7536 14.2164 13.8476 14.1864 13.9416C14.0045 14.5128 13.8222 15.0851 13.5118 15.6082C13.1442 16.2275 12.5868 16.6661 12.0294 17.1047C12.0098 17.1201 11.9901 17.1356 11.9705 17.1511C11.9541 17.1639 11.9378 17.1768 11.9215 17.1897C11.8795 17.2229 11.8402 17.2602 11.801 17.2974L11.8008 17.2975C11.7855 17.3121 11.7702 17.3266 11.7548 17.3408L11.6606 17.383C11.3547 17.563 11.0738 17.7805 10.8248 18.0303C11.1594 17.8592 11.491 17.6882 11.7846 17.4572C11.7929 17.4561 11.8006 17.4524 11.8065 17.4468C11.8125 17.4412 11.8165 17.4338 11.818 17.4258C11.8728 17.4071 11.9259 17.3836 11.9765 17.3557C12.0084 17.3345 12.0421 17.3081 12.0765 17.2813C12.1849 17.1965 12.2997 17.1068 12.3859 17.16C12.4664 17.2098 12.45 17.3398 12.4339 17.4672C12.4273 17.5192 12.4208 17.5708 12.421 17.6163C12.4251 18.4239 12.428 19.232 12.421 20.0396C12.421 20.2181 12.4795 20.3105 12.6502 20.3789C13.3659 20.6605 14.0794 20.9477 14.7931 21.2351C15.1334 21.3721 15.4737 21.5092 15.8144 21.6456C16.7623 22.0258 17.7112 22.4049 18.661 22.7829C18.7996 22.838 18.9379 22.8937 19.0763 22.9495C19.429 23.0916 19.7816 23.2337 20.1378 23.3652C20.3864 23.4581 20.5472 23.5431 20.4496 23.8653C20.3271 24.2698 20.2303 24.6814 20.1334 25.0932C20.0915 25.2713 20.0496 25.4495 20.0056 25.6271C19.712 26.8141 19.418 28.0006 19.1237 29.1865C18.7162 30.8332 18.3083 32.4795 17.9001 34.1255C17.8029 34.5185 17.7076 34.9117 17.6123 35.3051L17.6121 35.3058L17.6112 35.3093L17.611 35.3101C17.5529 35.5498 17.4948 35.7895 17.4363 36.0292C17.405 36.2063 17.3046 36.3647 17.1561 36.4712C14.833 38.1179 12.513 39.7688 10.1961 41.4239C10.1854 41.4314 10.1748 41.4406 10.1641 41.4498C10.1236 41.4847 10.0807 41.5218 10.0206 41.4844C9.97601 41.4574 9.98006 41.4115 9.98398 41.3672C9.98519 41.3534 9.9864 41.3398 9.98612 41.3269C9.98378 41.2509 9.98456 41.1749 9.98534 41.0988C9.98573 41.0608 9.98612 41.0228 9.98612 40.9848C9.98612 28.4376 9.98358 15.8922 9.97852 3.34849C9.97852 3.04907 10.061 2.97607 10.3528 3.00629C12.4175 3.21104 13.9791 4.17603 14.981 5.94917C15.498 6.86169 15.6863 7.86774 15.6068 8.912C15.5638 9.45065 15.4427 9.98063 15.2471 10.4861C15.1877 10.6416 15.1394 10.8013 15.0912 10.9609C15.0687 11.0355 15.0462 11.1101 15.0225 11.1842V11.2515L15.0705 11.2269ZM12.0016 12.08C11.9959 12.3032 11.9119 12.4536 11.7618 12.5276C11.9133 12.4537 11.9973 12.3033 12.0016 12.08ZM10.8482 11.657C10.8525 11.6796 10.8509 11.7055 10.8493 11.7318C10.8444 11.8097 10.8394 11.891 10.9863 11.8999C11.0379 11.9031 11.0753 11.8961 11.1021 11.8815C11.0761 11.8939 11.0408 11.8997 10.9932 11.8971C10.843 11.8894 10.8475 11.8076 10.8519 11.7294C10.8533 11.7036 10.8548 11.6781 10.8505 11.6558L10.8482 11.657ZM10.853 11.603C10.87 11.3771 10.9701 11.241 11.1562 11.1879C10.9709 11.2386 10.87 11.3741 10.853 11.603ZM11.4779 11.4714C11.4572 11.4771 11.4323 11.479 11.4027 11.4768C11.3339 11.4722 11.2754 11.4785 11.2339 11.5036C11.2749 11.4809 11.3308 11.4753 11.3957 11.4796C11.4287 11.4817 11.4558 11.4788 11.4779 11.4714ZM10.8781 28.6173C10.8744 28.6387 10.8719 28.6593 10.8721 28.6782C10.872 28.6594 10.8745 28.6388 10.8781 28.6173ZM12.0115 28.8939C12.0095 28.8764 12.0113 28.8565 12.0132 28.8362C12.0193 28.7699 12.0257 28.6996 11.8981 28.6966C11.7741 28.6931 11.7226 28.7536 11.7168 28.8676C11.7086 29.0587 11.6279 29.1625 11.4097 29.146C11.2827 29.1361 11.2676 29.2374 11.2665 29.3336C11.2678 29.2381 11.2837 29.1385 11.4097 29.1483C11.6278 29.1648 11.7086 29.061 11.7167 28.8699C11.722 28.7559 11.7752 28.6954 11.8981 28.6988C12.0248 28.7019 12.0187 28.7712 12.0128 28.8371C12.011 28.8579 12.0091 28.8783 12.0115 28.8962C12.0049 29.1143 11.9338 29.2731 11.8081 29.3653C11.9345 29.2736 12.0059 29.1146 12.0115 28.8962L12.0115 28.8939ZM11.522 28.0433C11.5221 28.0433 11.5221 28.0433 11.5221 28.0433C11.5091 28.0435 11.4962 28.0436 11.484 28.043C11.4962 28.0436 11.5091 28.0435 11.522 28.0433Z" fill="#FC3E3C"/>
<path d="M29.956 16.8424H30.9092C32.2164 16.8424 32.87 17.6322 32.87 19.2118C32.87 20.8458 32.1892 21.5812 30.9092 21.5812H29.956V16.8424ZM24.8905 32.6382H29.956V25.2305H31.7262C35.8658 25.2305 38.099 23.188 38.099 19.1846C38.099 15.8075 36.356 13.1931 32.4888 13.1931H24.8905V32.6382ZM46.6535 23.4331H43.9573V22.7795C43.9573 21.2271 44.2841 20.519 45.2917 20.519C46.3539 20.519 46.6535 21.2271 46.6535 22.7795V23.4331ZM51.2288 26.102V24.6041C51.2288 19.2663 49.2407 17.5233 45.319 17.5233C40.8798 17.5233 39.0552 19.6475 39.0552 25.285C39.0552 30.868 40.6075 33.0195 45.319 33.0195C49.3769 33.0195 51.0109 31.0586 51.0926 27.4637H46.6807C46.6807 29.479 46.1632 30.0237 45.2917 30.0237C44.6109 30.0237 43.9573 29.6424 43.9573 28.0356V26.102H51.2288ZM52.6026 32.6382H57.5047V22.9156C57.5047 21.6901 57.8315 21.1727 58.703 21.1727C59.5745 21.1727 59.9013 21.6901 59.9013 22.9156V32.6382H64.8035V21.5267C64.8035 18.4492 63.006 17.5233 60.9635 17.5233C59.7652 17.5233 58.4035 17.9863 57.5592 19.5386H57.5047V13.1931H52.6026V32.6382ZM78.4894 23.6782C78.4894 20.0016 77.2639 17.5233 72.9064 17.5233C69.2298 17.5233 66.3158 18.5582 66.3158 25.5301C66.3158 31.8756 68.8758 33.0195 72.6613 33.0195C74.7583 33.0195 76.2562 32.502 77.1822 31.4671C78.1354 30.405 78.4894 28.7982 78.4894 26.4833H74.0775V27.4365C74.0775 29.2884 73.56 29.8603 72.6613 29.8603C71.5447 29.8603 71.2179 28.9071 71.2179 25.285C71.2179 21.6629 71.5447 20.6824 72.6613 20.6824C73.1788 20.6824 73.56 20.9003 73.7507 21.3088C73.9686 21.7718 74.0775 22.4799 74.0775 23.6782H78.4894ZM79.8632 32.6382H84.7654V22.9156C84.7654 21.6901 85.0922 21.1727 85.9637 21.1727C86.8352 21.1727 87.162 21.6901 87.162 22.9156V32.6382H92.0641V21.5267C92.0641 18.4492 90.2666 17.5233 88.2241 17.5233C87.0258 17.5233 85.6641 17.9863 84.8198 19.5386H84.7654V13.1931H79.8632V32.6382ZM99.35 29.7241C98.6147 29.7241 98.1517 29.0978 98.1517 28.1173C98.1517 27.1369 98.3969 26.565 99.1594 26.2109C99.8947 25.8841 100.521 25.9386 100.821 25.5301H100.875V27.3003C100.875 28.9344 100.439 29.7241 99.35 29.7241ZM105.913 32.6382C105.505 31.8756 105.45 30.8407 105.45 29.4518V22.262C105.45 18.4492 103.054 17.5233 99.6224 17.5233C97.3892 17.5233 93.9849 18.2314 93.9849 22.4799H98.2334C98.2607 20.9275 98.6692 20.519 99.6224 20.519C100.467 20.519 100.875 20.982 100.875 21.8807C100.875 22.7795 100.494 23.2424 99.4317 23.4875L97.4981 23.9505C94.3662 24.6858 93.413 25.9658 93.413 28.6892C93.413 31.1948 94.5296 33.0195 97.4981 33.0195C98.996 33.0195 100.276 32.2841 100.821 30.9769H100.875C100.957 31.6033 100.984 32.1207 101.175 32.6382H105.913ZM112.967 29.7241C112.232 29.7241 111.769 29.0978 111.769 28.1173C111.769 27.1369 112.014 26.565 112.776 26.2109C113.512 25.8841 114.138 25.9386 114.438 25.5301H114.492V27.3003C114.492 28.9344 114.056 29.7241 112.967 29.7241ZM119.53 32.6382C119.122 31.8756 119.067 30.8407 119.067 29.4518V22.262C119.067 18.4492 116.671 17.5233 113.239 17.5233C111.006 17.5233 107.602 18.2314 107.602 22.4799H111.85C111.878 20.9275 112.286 20.519 113.239 20.519C114.084 20.519 114.492 20.982 114.492 21.8807C114.492 22.7795 114.111 23.2424 113.049 23.4875L111.115 23.9505C107.983 24.6858 107.03 25.9658 107.03 28.6892C107.03 31.1948 108.147 33.0195 111.115 33.0195C112.613 33.0195 113.893 32.2841 114.438 30.9769H114.492C114.574 31.6033 114.601 32.1207 114.792 32.6382H119.53ZM121.246 32.6382H126.148V22.9156C126.148 21.6901 126.475 21.1727 127.347 21.1727C128.218 21.1727 128.545 21.6901 128.545 22.9156V32.6382H133.447V21.5267C133.447 18.3675 131.759 17.5233 129.607 17.5233C127.891 17.5233 126.666 18.2586 126.039 19.702H125.985V17.9046H121.246V32.6382Z" fill="#407BFF"/>
<path d="M24.7809 10.4468H27.0022V3.65529H27.0277L28.2916 10.4468H30.0022L31.266 3.65529H31.2916V10.4468H33.5128V1.33188H30.1171L29.1597 6.73188H29.1341L28.1767 1.33188H24.7809V10.4468ZM37.7998 6.13188H36.536V5.8255C36.536 5.09784 36.6892 4.76593 37.1615 4.76593C37.6594 4.76593 37.7998 5.09784 37.7998 5.8255V6.13188ZM39.9445 7.38295V6.68082C39.9445 4.17869 39.0126 3.36167 37.1743 3.36167C35.0934 3.36167 34.2381 4.35742 34.2381 6.99997C34.2381 9.61699 34.9658 10.6255 37.1743 10.6255C39.0764 10.6255 39.8424 9.70635 39.8807 8.02125H37.8126C37.8126 8.96593 37.57 9.22125 37.1615 9.22125C36.8424 9.22125 36.536 9.04252 36.536 8.28933V7.38295H39.9445ZM40.5247 10.4468H42.8225V6.68082C42.8225 5.76167 43.2949 5.45529 44.1119 5.45529C44.3034 5.45529 44.4821 5.46805 44.6864 5.50635V3.36167H44.3161C43.6395 3.36167 43.0268 3.80848 42.7715 4.63827H42.7459V3.54039H40.5247V10.4468ZM45.1148 3.04252H47.4127V1.33188H45.1148V3.04252ZM45.1148 10.4468H47.4127V3.54039H45.1148V10.4468Z" fill="#407BFF"/>
<path d="M25.0535 37.7829V42.3403H25.8961V39.1488H25.9088L27.0322 42.3403H28.0791V37.7829H27.2365V40.9042H27.2237L26.1131 37.7829H25.0535ZM32.0188 38.5744H32.0315L32.4719 40.6233H31.5783L32.0188 38.5744ZM30.2507 42.3403H31.2081L31.4188 41.3765H32.6315L32.8422 42.3403H33.7996L32.5932 37.7829H31.457L30.2507 42.3403ZM35.376 37.7829V38.5361H36.3718V42.3403H37.2909V38.5361H38.2867V37.7829H35.376ZM41.5003 42.3403V37.7829H40.5812V42.3403H41.5003ZM43.9374 40.0616C43.9374 41.4467 44.1098 42.4297 45.4885 42.4297C46.8672 42.4297 47.0395 41.4467 47.0395 40.0616C47.0395 38.6765 46.8672 37.6935 45.4885 37.6935C44.1098 37.6935 43.9374 38.6765 43.9374 40.0616ZM44.8566 40.0616C44.8566 38.8425 44.9459 38.3701 45.4885 38.3701C46.031 38.3701 46.1204 38.8425 46.1204 40.0616C46.1204 41.2871 46.031 41.7531 45.4885 41.7531C44.9459 41.7531 44.8566 41.2871 44.8566 40.0616ZM49.431 37.7829V42.3403H50.2736V39.1488H50.2863L51.4097 42.3403H52.4566V37.7829H51.614V40.9042H51.6012L50.4906 37.7829H49.431ZM56.3962 38.5744H56.409L56.8494 40.6233H55.9558L56.3962 38.5744ZM54.6282 42.3403H55.5856L55.7962 41.3765H57.009L57.2196 42.3403H58.1771L56.9707 37.7829H55.8345L54.6282 42.3403ZM62.892 42.3403V41.5871H61.2643V37.7829H60.3452V42.3403H62.892ZM68.3566 40.9169V41.102C68.3566 41.9446 68.7651 42.4297 69.8055 42.4297C70.8013 42.4297 71.3885 41.9957 71.3885 41.0318C71.3885 40.4701 71.2098 40.1318 70.5204 39.8254L69.8119 39.5191C69.4226 39.3595 69.3396 39.1808 69.3396 38.8999C69.3396 38.6254 69.4481 38.3701 69.863 38.3701C70.2204 38.3701 70.3609 38.6127 70.3609 39.0467H71.2417V38.9191C71.2417 38.0446 70.6481 37.6935 69.8311 37.6935C68.9566 37.6935 68.4204 38.1403 68.4204 39.0339C68.4204 39.7871 68.797 40.1382 69.614 40.4127C70.2268 40.6169 70.4311 40.7829 70.4311 41.1914C70.4311 41.5744 70.163 41.7531 69.8821 41.7531C69.397 41.7531 69.2757 41.4786 69.2757 41.051V40.9169H68.3566ZM74.6601 42.3403V37.7829H73.741V42.3403H74.6601ZM77.193 37.7829V42.3403H78.0355V39.1488H78.0483L79.1717 42.3403H80.2185V37.7829H79.376V40.9042H79.3632L78.2526 37.7829H77.193ZM85.6135 39.1361C85.6135 38.2105 85.1986 37.6935 84.1965 37.6935C83.022 37.6935 82.6646 38.4786 82.6646 40.0105C82.6646 41.5871 82.888 42.4297 84.0178 42.4297C84.4518 42.4297 84.7518 42.2765 84.9752 41.9191H84.988V42.3403H85.6646V39.8829H84.1774V40.5595H84.7837V41.0254C84.7837 41.5169 84.4391 41.7531 84.2157 41.7531C83.6859 41.7531 83.5837 41.0637 83.5837 39.9659C83.5837 38.8233 83.7689 38.3701 84.2093 38.3701C84.5859 38.3701 84.7327 38.8042 84.7327 39.1361H85.6135ZM90.6539 42.3403V41.5871H89.0263V37.7829H88.1071V42.3403H90.6539ZM92.9128 37.7829V42.3403H95.5235V41.5871H93.832V40.3616H95.3639V39.6084H93.832V38.5361H95.4596V37.7829H92.9128ZM101.043 40.9169V41.102C101.043 41.9446 101.451 42.4297 102.492 42.4297C103.487 42.4297 104.075 41.9957 104.075 41.0318C104.075 40.4701 103.896 40.1318 103.207 39.8254L102.498 39.5191C102.109 39.3595 102.026 39.1808 102.026 38.8999C102.026 38.6254 102.134 38.3701 102.549 38.3701C102.907 38.3701 103.047 38.6127 103.047 39.0467H103.928V38.9191C103.928 38.0446 103.334 37.6935 102.517 37.6935C101.643 37.6935 101.107 38.1403 101.107 39.0339C101.107 39.7871 101.483 40.1382 102.3 40.4127C102.913 40.6169 103.117 40.7829 103.117 41.1914C103.117 41.5744 102.849 41.7531 102.568 41.7531C102.083 41.7531 101.962 41.4786 101.962 41.051V40.9169H101.043ZM107.346 42.3403V37.7829H106.427V42.3403H107.346ZM112.783 39.1361C112.783 38.2105 112.368 37.6935 111.366 37.6935C110.192 37.6935 109.834 38.4786 109.834 40.0105C109.834 41.5871 110.058 42.4297 111.188 42.4297C111.622 42.4297 111.922 42.2765 112.145 41.9191H112.158V42.3403H112.834V39.8829H111.347V40.5595H111.954V41.0254C111.954 41.5169 111.609 41.7531 111.385 41.7531C110.856 41.7531 110.754 41.0637 110.754 39.9659C110.754 38.8233 110.939 38.3701 111.379 38.3701C111.756 38.3701 111.902 38.8042 111.902 39.1361H112.783ZM115.277 37.7829V42.3403H116.119V39.1488H116.132L117.256 42.3403H118.302V37.7829H117.46V40.9042H117.447L116.337 37.7829H115.277ZM120.755 40.1191V40.8722H122.555V40.1191H120.755ZM124.911 40.0616C124.911 41.4467 125.083 42.4297 126.462 42.4297C127.841 42.4297 128.013 41.4467 128.013 40.0616C128.013 38.6765 127.841 37.6935 126.462 37.6935C125.083 37.6935 124.911 38.6765 124.911 40.0616ZM125.83 40.0616C125.83 38.8425 125.919 38.3701 126.462 38.3701C127.005 38.3701 127.094 38.8425 127.094 40.0616C127.094 41.2871 127.005 41.7531 126.462 41.7531C125.919 41.7531 125.83 41.2871 125.83 40.0616ZM130.405 37.7829V42.3403H131.247V39.1488H131.26L132.383 42.3403H133.43V37.7829H132.588V40.9042H132.575L131.464 37.7829H130.405Z" fill="black"/>
<line x1="23.8828" y1="34.9999" x2="134.096" y2="34.9999" stroke="black" stroke-width="0.425532"/>
</svg>
