<svg xmlns="http://www.w3.org/2000/svg" width="50.5" height="52.799" viewBox="0 0 50.5 52.799">
  <g id="Group_54911" data-name="Group 54911" transform="translate(-320 -647.793)">
    <g id="Group_54904" data-name="Group 54904" transform="translate(0 19)">
      <path id="Path_27579" data-name="Path 27579" d="M362.727,141.406c-.616-.111-15.179-2.844-19.852-15.211a71.82,71.82,0,0,1-4.138-22.639V98.992l4.556.253c.042,0,.2.008.464.008,2.449,0,10.886-.451,16.677-6.241l3.053-3.053,3.053,3.053c5.791,5.791,14.229,6.241,16.678,6.241.267,0,.433-.006.475-.008l4.537-.236.008,4.543a71.78,71.78,0,0,1-4.139,22.644c-4.671,12.366-19.235,15.1-19.852,15.211l-.759.136Z" transform="translate(-18.238 539.542)" fill="#3a9fa4" stroke="#308b94" stroke-width="1"/>
      <path id="Path_27590" data-name="Path 27590" d="M96.519,16.869a.283.283,0,0,0-.249-.276,2.211,2.211,0,0,1-1.943-2.2.3.3,0,0,0-.283-.34H90.153a4.259,4.259,0,0,0-3.212-1.47H86.1v-.85l.884-.534a2,2,0,0,0,.959-1.7V9.161a5.185,5.185,0,0,0,1.669-3.78c0-3.482-3.476-5.823-6.747-5.308a1.936,1.936,0,0,0-1.591,1.5,1.814,1.814,0,0,0-2.026.535,5.1,5.1,0,0,0-1.193,3.275,5.186,5.186,0,0,0,1.669,3.781V9.5a2,2,0,0,0,.959,1.7l.884.534v.85h-.85a4.238,4.238,0,0,0-3.209,1.47H75.12a.283.283,0,0,0-.283.283v1.885a.283.283,0,0,0,.283.283h.159v.63a1.517,1.517,0,0,1-.548,1.182,2.041,2.041,0,0,0-.758,1.591v2.233H71.246V20.517H73.3a.291.291,0,0,0,.294-.256.283.283,0,0,0-.282-.311H71.246V18.643H72.63a.291.291,0,0,0,.294-.256.283.283,0,0,0-.282-.311h-1.4V16.768H72.63a.291.291,0,0,0,.294-.256.283.283,0,0,0-.282-.311h-1.4V14.893H73.3a.291.291,0,0,0,.294-.256.283.283,0,0,0-.282-.311H71.246V13.019H72.63a.291.291,0,0,0,.294-.256.283.283,0,0,0-.282-.311h-1.4V11.144H72.63a.291.291,0,0,0,.294-.256.283.283,0,0,0-.282-.311h-1.4V9.269H73.3a.291.291,0,0,0,.294-.256.283.283,0,0,0-.282-.311H71.246V7.819a.737.737,0,0,1,.737-.737h2.664a.737.737,0,0,1,.736.736v3.042a.291.291,0,0,0,.255.294.283.283,0,0,0,.311-.282V7.819a1.3,1.3,0,0,0-.672-1.14V6.186A1.966,1.966,0,0,0,74.4,4.552V4A1.091,1.091,0,0,0,73.6,2.945V1.294A.291.291,0,0,0,73.342,1a.283.283,0,0,0-.311.282V2.945A1.091,1.091,0,0,0,72.225,4v.556a1.966,1.966,0,0,0-.874,1.634v.493a1.3,1.3,0,0,0-.672,1.14V22.138H70.3a.291.291,0,0,0-.294.256.283.283,0,0,0,.282.311h1.526v1.453L70.69,25.251a.742.742,0,0,0,.513,1.265h8.062a1.3,1.3,0,0,0,1.3-1.3V19.9a2.021,2.021,0,0,0-.747-1.583,1.476,1.476,0,0,1-.558-1.159V16.5h.159a.283.283,0,0,0,.283-.283V14.333a.283.283,0,0,0-.283-.283H78.312a3.663,3.663,0,0,1,2.41-.9h.85v.526a2.269,2.269,0,0,0,1.983,2.248v4.756a.291.291,0,0,0,.255.294.283.283,0,0,0,.311-.282V15.921A2.269,2.269,0,0,0,86.1,13.672v-.526h.837a3.653,3.653,0,0,1,2.414.9h-1.07a.3.3,0,0,0-.283.34,2.211,2.211,0,0,1-1.943,2.2.3.3,0,0,0-.249.275,10.845,10.845,0,0,0,2.589,7.78h-4.32a.283.283,0,1,0,0,.567h4.909A6.766,6.766,0,0,0,91.075,26.5a.282.282,0,0,0,.2-.01,8.643,8.643,0,0,0,2.682-2.107,10.753,10.753,0,0,0,2.559-7.515ZM72.791,4a.523.523,0,1,1,1.046,0v.3a1.965,1.965,0,0,0-1.046,0ZM80,25.213a.737.737,0,0,1-.736.737H75.276a.737.737,0,0,1-.736-.737v-.863H80Zm0-1.43H74.54V20.592H80ZM78.7,16.5v.661a2.041,2.041,0,0,0,.758,1.591A1.529,1.529,0,0,1,80,20.025H74.54a1.529,1.529,0,0,1,.548-1.272,2.041,2.041,0,0,0,.758-1.591V16.5Zm6.842-2.829a1.7,1.7,0,1,1-3.4,0v-1.6l.385.232a2.568,2.568,0,0,0,2.63,0l.385-.232Zm-.677-1.854a1.974,1.974,0,0,1-2.045,0l-1.836-1.107A1.426,1.426,0,0,1,80.294,9.5V5.908c0-1.2,1.266-2.609,2.518-1.892,1.434.821,2.816,1.809,4.569,1.37V9.5a1.426,1.426,0,0,1-.685,1.215Zm8.57,8.84H91.446v1.983a.283.283,0,1,1-.567,0V20.659H88.9a.283.283,0,0,1,0-.567H90.88V18.109a.283.283,0,1,1,.567,0v1.983h1.983a.283.283,0,1,1,0,.567Z" transform="translate(261.992 641.998)" fill="#1f7c80"/>
    </g>
  </g>
</svg>
